<svg version="1.1" id="Layer_1" xmlns="http://www.w3.org/2000/svg" xmlns:xlink="http://www.w3.org/1999/xlink" x="0px" y="0px" viewBox="0 0 50 50" style="enable-background:new 0 0 50 50;" xml:space="preserve">
	<style type="text/css">
		.instagram-icon{fill:url(#instagram-gradient);}
	</style>
	<linearGradient id="instagram-gradient" gradientUnits="userSpaceOnUse" x1="-2404.05" y1="1033.2573" x2="-2386.3647" y2="1075.4382" gradientTransform="matrix(-1 0 0 1 -2370 -1029.89)">
		<stop offset="0.2341" style="stop-color:#9E35A5"/>
		<stop offset="0.4512" style="stop-color:#D42F7F"/>
		<stop offset="0.7524" style="stop-color:#F7772E"/>
		<stop offset="0.9624" style="stop-color:#FEF780"/>
	</linearGradient>
	<path class="instagram-icon" d="M44.9,16.8c-0.1-2.1-0.4-3.6-0.9-4.9c-0.5-1.3-1.2-2.4-2.3-3.5c-1.1-1.1-2.2-1.8-3.5-2.3c-1.3-0.5-2.7-0.8-4.8-0.9
		C31.1,5,30.4,5,25,5h0c-5.4,0-6.1,0-8.2,0.1c-2.1,0.1-3.6,0.4-4.8,0.9c-1.3,0.5-2.4,1.2-3.5,2.3C7.2,9.5,6.5,10.6,6,11.9
		c-0.5,1.3-0.8,2.7-0.9,4.9C5,18.9,5,19.6,5,25s0,6.1,0.1,8.2c0.1,2.1,0.4,3.6,0.9,4.8c0.5,1.3,1.2,2.4,2.3,3.5
		c1.1,1.1,2.2,1.8,3.5,2.3c1.3,0.5,2.7,0.8,4.8,0.9C18.9,45,19.6,45,25,45h0c5.4,0,6.1,0,8.2-0.1c2.1-0.1,3.6-0.4,4.9-0.9
		c1.3-0.5,2.4-1.2,3.5-2.3s1.8-2.2,2.3-3.5c0.5-1.3,0.8-2.7,0.9-4.8C45,31.1,45,30.4,45,25S45,18.9,44.9,16.8z M41.3,33.1
		c-0.1,2-0.4,3-0.7,3.7c-0.4,0.9-0.8,1.6-1.5,2.3c-0.7,0.7-1.4,1.1-2.3,1.5c-0.7,0.3-1.8,0.6-3.7,0.7c-2.1,0.1-2.7,0.1-8.1,0.1
		s-6,0-8.1-0.1c-2-0.1-3-0.4-3.7-0.7c-0.9-0.4-1.6-0.8-2.3-1.5c-0.7-0.7-1.1-1.4-1.5-2.3c-0.3-0.7-0.6-1.8-0.7-3.7
		C8.6,31,8.6,30.3,8.6,25s0-6,0.1-8.1c0.1-2,0.4-3,0.7-3.7c0.4-0.9,0.8-1.6,1.5-2.3c0.7-0.7,1.4-1.1,2.3-1.5c0.7-0.3,1.8-0.6,3.7-0.7
		C19,8.6,19.7,8.6,25,8.6s6,0,8.1,0.1c2,0.1,3,0.4,3.7,0.7c0.9,0.4,1.6,0.8,2.3,1.5c0.7,0.7,1.1,1.4,1.5,2.3c0.3,0.7,0.6,1.8,0.7,3.7
		c0.1,2.1,0.1,2.7,0.1,8.1S41.4,31,41.3,33.1z M25,14.7c-5.7,0-10.3,4.6-10.3,10.3c0,5.7,4.6,10.3,10.3,10.3S35.3,30.7,35.3,25
		C35.3,19.3,30.7,14.7,25,14.7z M25,31.7c-3.7,0-6.7-3-6.7-6.7s3-6.7,6.7-6.7s6.7,3,6.7,6.7S28.7,31.7,25,31.7z M35.7,11.9
		c-1.3,0-2.4,1.1-2.4,2.4c0,1.3,1.1,2.4,2.4,2.4c1.3,0,2.4-1.1,2.4-2.4C38.1,13,37,11.9,35.7,11.9z" />
</svg>
