<svg version="1.1" id="Layer_1" xmlns="http://www.w3.org/2000/svg" xmlns:xlink="http://www.w3.org/1999/xlink" x="0px" y="0px" viewBox="0 0 50 50" style="enable-background:new 0 0 50 50;" xml:space="preserve">
	<style type="text/css">
		.twitter-icon{fill:#1DA1F2;}
	</style>
	<path class="twitter-icon" d="M17.58,41.25c15.09,0,23.35-12.51,23.35-23.35c0-0.36-0.01-0.71-0.02-1.06c1.6-1.16,3-2.6,4.09-4.25
		c-1.47,0.65-3.05,1.09-4.71,1.29c1.69-1.02,3-2.62,3.61-4.54c-1.59,0.94-3.34,1.62-5.21,1.99c-1.5-1.6-3.63-2.59-5.99-2.59
		c-4.53,0-8.21,3.68-8.21,8.21c0,0.64,0.07,1.27,0.21,1.87c-6.82-0.34-12.87-3.61-16.92-8.57c-0.71,1.21-1.11,2.62-1.11,4.12
		c0,2.85,1.45,5.36,3.65,6.83c-1.35-0.04-2.61-0.41-3.72-1.03c0,0.03,0,0.07,0,0.1c0,3.97,2.83,7.29,6.58,8.05
		c-0.69,0.19-1.41,0.29-2.16,0.29c-0.53,0-1.04-0.05-1.54-0.15c1.04,3.26,4.07,5.63,7.67,5.7c-2.81,2.2-6.35,3.51-10.19,3.51
		c-0.66,0-1.32-0.04-1.96-0.11C8.63,39.9,12.94,41.25,17.58,41.25"/>
</svg>
