<svg version="1.1" id="Layer_1" xmlns="http://www.w3.org/2000/svg" xmlns:xlink="http://www.w3.org/1999/xlink" x="0px" y="0px" viewBox="0 0 50 50" style="enable-background:new 0 0 50 50;" xml:space="preserve">
	<style type="text/css">
		.youtube-icon{fill:#FF0000;}
		.youtube-arrow{fill:#FFFFFF;}
	</style>
	<path class="youtube-icon" d="M47,13.9c-0.5-2-2.1-3.5-4.1-4.1c-3.6-1-18-1-18-1s-14.4,0-18,1c-2,0.5-3.5,2.1-4.1,4.1C2,17.5,2,25,2,25
		s0,7.5,1,11.1c0.5,2,2.1,3.5,4.1,4.1c3.6,1,18,1,18,1s14.4,0,18-1c2-0.5,3.5-2.1,4.1-4.1c1-3.6,1-11.1,1-11.1S48,17.5,47,13.9z"/>
	<polygon class="youtube-arrow" points="20.4,31.9 32.3,25 20.4,18.1 "/>
</svg>
